<svg xmlns="http://www.w3.org/2000/svg" xmlns:xlink="http://www.w3.org/1999/xlink" viewBox="0 0 283 343"><defs><style>.cls-1,.cls-4{fill:#fff;}.cls-1{stroke:#84849f;stroke-miterlimit:10;stroke-width:3px;}.cls-2{fill:#ebe9f5;}.cls-3{fill:#84849f;}.cls-4{font-size:20.48px;font-family:Kollektif;}.cls-5{fill:url(#linear-gradient);}.cls-6{fill:#616183;}.cls-7{fill:url(#linear-gradient-2);}.cls-8{fill:url(#linear-gradient-3);}.cls-9{fill:url(#linear-gradient-4);}.cls-10{fill:url(#linear-gradient-5);}.cls-11{fill:url(#linear-gradient-6);}.cls-12{fill:#dbdce3;}.cls-13{fill:url(#linear-gradient-7);}.cls-14{fill:#9595ab;}.cls-15{fill:#da787a;}.cls-16{fill:#84839e;}.cls-17{fill:url(#linear-gradient-8);}.cls-18{fill:url(#linear-gradient-9);}</style><linearGradient id="linear-gradient" x1="189.86" y1="-652.85" x2="221.99" y2="-652.85" gradientTransform="matrix(1, 0, 0, -1, 0, -477.39)" gradientUnits="userSpaceOnUse"><stop offset="0.01" stop-color="#a6a6b9"/><stop offset="1" stop-color="#cacad4"/></linearGradient><linearGradient id="linear-gradient-2" x1="200.25" y1="-658.53" x2="211.6" y2="-647.17" gradientTransform="matrix(1, 0, 0, -1, 0, -477.39)" gradientUnits="userSpaceOnUse"><stop offset="0" stop-color="#d4676a"/><stop offset="1" stop-color="#dd888b"/></linearGradient><linearGradient id="linear-gradient-3" x1="106.22" y1="-664.21" x2="128.93" y2="-641.49" xlink:href="#linear-gradient"/><linearGradient id="linear-gradient-4" x1="111.9" y1="-658.53" x2="123.25" y2="-647.17" xlink:href="#linear-gradient-2"/><linearGradient id="linear-gradient-5" x1="190.63" y1="-625.99" x2="205.17" y2="-611.44" gradientTransform="matrix(1, 0, 0, -1, 0, -477.39)" gradientUnits="userSpaceOnUse"><stop offset="0.01" stop-color="#dbdce3"/><stop offset="1" stop-color="#ededf0"/></linearGradient><linearGradient id="linear-gradient-6" x1="190.32" y1="-625.67" x2="204.24" y2="-611.75" gradientTransform="matrix(1, 0, 0, -1, 0, -477.39)" gradientUnits="userSpaceOnUse"><stop offset="0.01" stop-color="#84839e"/><stop offset="1" stop-color="#b9b9c7"/></linearGradient><linearGradient id="linear-gradient-7" x1="135.66" y1="-662.3" x2="165.93" y2="-632.03" gradientTransform="matrix(1, 0, 0, -1, 0, -477.39)" gradientUnits="userSpaceOnUse"><stop offset="0.01" stop-color="#cacad4"/><stop offset="1" stop-color="#dbdce3"/></linearGradient><linearGradient id="linear-gradient-8" x1="119.29" y1="-635.73" x2="143.75" y2="-611.27" xlink:href="#linear-gradient-6"/><linearGradient id="linear-gradient-9" x1="157.78" y1="-633.81" x2="179.68" y2="-611.92" gradientTransform="matrix(1, 0, 0, -1, 0, -477.39)" gradientUnits="userSpaceOnUse"><stop offset="0.01" stop-color="#f8c73f"/><stop offset="1" stop-color="#fada7e"/></linearGradient></defs><g id="Layer_2" data-name="Layer 2"><g id="Layer_1-2" data-name="Layer 1"><rect class="cls-1" x="1.5" y="1.5" width="280" height="340" rx="10.81"/><circle class="cls-2" cx="131.38" cy="164.38" r="73.38"/><rect class="cls-3" x="88.52" y="270.43" width="87.9" height="32.87" rx="16.43"/><text class="cls-4" transform="translate(112.46 292.16)">Bike</text><g id="_07-motor_bike" data-name=" 07-motor bike"><g id="gradient"><circle class="cls-5" cx="205.92" cy="175.46" r="16.06"/><path class="cls-6" d="M205.92,194.53A19.08,19.08,0,1,1,225,175.46h0A19.09,19.09,0,0,1,205.92,194.53Zm0-32.12A13.05,13.05,0,1,0,219,175.46,13.05,13.05,0,0,0,205.92,162.41Z"/><circle class="cls-7" cx="205.92" cy="175.46" r="8.03"/><circle class="cls-8" cx="117.58" cy="175.46" r="16.06"/><path class="cls-6" d="M117.58,194.53a19.08,19.08,0,1,1,19.07-19.07h0A19.09,19.09,0,0,1,117.58,194.53Zm0-32.12a13,13,0,1,0,13,13.05A13.06,13.06,0,0,0,117.58,162.41Z"/><circle class="cls-9" cx="117.58" cy="175.46" r="8.03"/><path class="cls-10" d="M202.16,132.29h-6a9,9,0,1,0,0,18.07h6a3,3,0,0,0,3-3v-12A3,3,0,0,0,202.16,132.29Z"/><path class="cls-11" d="M202.16,132.29h-6a9,9,0,1,0,0,18.07h6"/><path class="cls-12" d="M117.58,178.47a3,3,0,0,1-3-3,3.1,3.1,0,0,1,.16-.95l8-24.09a3,3,0,0,1,5.71,1.9l-8,24.1A3,3,0,0,1,117.58,178.47Z"/><path class="cls-13" d="M174.65,164.41l-.32,0c-8.92-.77-13.58-3.09-13.58-5v-8a3,3,0,0,0-3-3H133.64a3,3,0,0,0-1.35,5.71c.07,0,6.37,3.25,6.37,9.35,0,4.24-.63,7.92-1.6,9.37a11.76,11.76,0,0,0-.76,12.1,10.61,10.61,0,0,0,9.53,5.64H166c2.63,0,7.39-1.06,9.67-8.11a25.3,25.3,0,0,0,1.12-6.95v-6.17a3.08,3.08,0,0,0,.65-1.74,3,3,0,0,0-2.81-3.14Z"/><path class="cls-14" d="M174.05,170.44a3,3,0,0,1-2.51-4.69l8-12a3,3,0,0,1,5,3.34l-8,12A3,3,0,0,1,174.05,170.44Z"/><path class="cls-15" d="M182.08,170.44a3,3,0,0,1-2.13-.88l-8-8a3,3,0,0,1,4.26-4.26l8,8a3,3,0,0,1-2.13,5.14Z"/><path class="cls-15" d="M186.1,162.41a3,3,0,0,1-2.13-.89l-8-8a3,3,0,0,1,4.26-4.26l8,8a3,3,0,0,1-2.13,5.15Z"/><path class="cls-14" d="M157.73,178.47H109.54a3,3,0,0,1,0-6h48.19c12.63,0,13.06-.5,13.06-5a3,3,0,1,1,6,0c0,3.28-.58,7.86-5.63,9.83-3.1,1.21-7.22,1.21-13.45,1.21Z"/><path class="cls-16" d="M160.75,159.39v-2h-23.1a2.87,2.87,0,0,0-1.12.22,9.27,9.27,0,0,1,2.13,5.8h23.09a3,3,0,0,0,2.36-1.14C161.88,161.37,160.75,160.33,160.75,159.39Z"/><path class="cls-17" d="M126.11,139.31c-7.65,0-15.56-.37-15.56,9a3,3,0,0,0,3,3H148a3,3,0,0,0,3-3v-6a3,3,0,0,0-3-3Z"/><path class="cls-18" d="M166,133.29c-6.06,0-10.76,2.73-13.24,7.69a17.81,17.81,0,0,0-1.82,7.37,3,3,0,0,0,3,3h29.11a3,3,0,0,0,3-3v-4C186.1,139,180.82,133.29,166,133.29Z"/><path class="cls-12" d="M205.93,178.47a3,3,0,0,1-2.65-1.57l-24.09-44.18a3,3,0,0,1,5.28-2.88L208.57,174a3,3,0,0,1-2.64,4.46Z"/></g></g></g></g></svg>