<svg id="Capa_1" enable-background="new 0 0 497 497" height="512" viewBox="0 0 497 497" width="512" xmlns="http://www.w3.org/2000/svg"><g><g><g><path d="m172.508 184.719h82.504v27.861h-82.504z" fill="#4c5699" transform="matrix(.707 -.707 .707 .707 -77.857 209.335)"/></g><g><path d="m245.959 192.21-25.76-25.76c-5.44-5.44-5.44-14.261 0-19.701s14.261-5.44 19.701 0l25.76 25.76c5.44 5.44 5.44 14.261 0 19.701s-14.26 5.44-19.701 0z" fill="#676fb2"/></g></g><path d="m496.54 308.949c-6.233-46.794-2.434-33.943-19.459-96.229-5.013-18.341-11.832-43.196-21.245-78.009-11.158-41.27-48.601-69.933-91.352-69.933h-116.703l-28.391 5.692v40.112c2.902-.528 5.882-.804 8.914-.804h66.76c8.284 0 15 6.716 15 15v72.941c0 8.284-6.716 15-15 15h-75.673v109.558l59.924 45h166.206c31.128.001 55.133-27.443 51.019-58.328zm-85.822-96.229h-40.654c-8.284 0-15-6.716-15-15v-78.521c0-5.203 4.217-9.421 9.42-9.421h.001c22.371 0 42.072 15.082 47.911 36.678l12.802 47.349c2.578 9.535-4.603 18.915-14.48 18.915z" fill="#70dcba"/><path d="m219.391 212.72h-.927-55.988l17.917-66.264c5.061-18.718 20.434-32.482 38.999-35.865v-4.524c0-18.313 11.29-34.732 28.39-41.288h-19.478c-42.751 0-80.193 28.663-91.352 69.933l-21.092 78.008h-37.518c-25.797 0-47.61 19.115-51.019 44.71l-6.863 51.52c-4.114 30.885 19.89 58.328 51.019 58.328h207.835c-34.885-37.173-59.923-97.907-59.923-154.558z" fill="#06ccab"/><path d="m25 347.279h66.154v50h-66.154c-13.807 0-25-11.193-25-25 0-13.807 11.193-25 25-25z" fill="#9ea2e3"/><path d="m472 347.279h-66.154v50h66.154c13.807 0 25-11.193 25-25 0-13.807-11.193-25-25-25z" fill="#9ea2e3"/><g><g><path d="m142.927 306.964h-24.375l-65 60.257 65 60.257h24.375c23.817-9.645 40.625-32.981 40.625-60.257s-16.808-50.612-40.625-60.257z" fill="#676fb2"/><path d="m102.302 367.221c0 27.276 16.808 50.613 40.625 60.257-7.529 3.049-15.752 4.743-24.375 4.743-35.898 0-65-29.101-65-65s29.101-65 65-65c8.623 0 16.846 1.694 24.375 4.743-23.817 9.645-40.625 32.982-40.625 60.257z" fill="#4c5699"/><path d="m134.242 363.021c-2.318-8.652-11.242-13.804-19.894-11.486s-13.804 11.242-11.486 19.894c2.318 8.653 11.242 13.804 19.894 11.486s13.804-11.243 11.486-19.894z" fill="#9ea2e3"/></g><g><path d="m402.814 306.964h-24.375l-65 60.257 65 60.257h24.375c23.817-9.645 40.625-32.981 40.625-60.257s-16.808-50.612-40.625-60.257z" fill="#676fb2"/><path d="m362.189 367.221c0 27.276 16.808 50.613 40.625 60.257-7.529 3.049-15.752 4.743-24.375 4.743-35.898 0-65-29.101-65-65s29.102-65 65-65c8.623 0 16.846 1.694 24.375 4.743-23.817 9.645-40.625 32.982-40.625 60.257z" fill="#4c5699"/><path d="m394.129 363.021c-2.318-8.652-11.242-13.804-19.894-11.486s-13.804 11.242-11.486 19.894c2.318 8.653 11.242 13.804 19.894 11.486s13.804-11.243 11.486-19.894z" fill="#9ea2e3"/></g></g></g></svg>