<svg xmlns="http://www.w3.org/2000/svg" xmlns:xlink="http://www.w3.org/1999/xlink" viewBox="0 0 283 343"><defs><style>.cls-1,.cls-4{fill:#fff;}.cls-1{stroke:#63c6be;stroke-miterlimit:10;stroke-width:3px;}.cls-2{fill:#daf0f2;}.cls-3{fill:#62c6be;}.cls-4{font-size:20.02px;font-family:Kollektif;}.cls-5{fill:url(#linear-gradient);}.cls-6{fill:url(#linear-gradient-2);}.cls-7{fill:url(#linear-gradient-3);}.cls-8{fill:url(#linear-gradient-4);}.cls-9{fill:url(#linear-gradient-5);}.cls-10{fill:url(#linear-gradient-6);}.cls-11{fill:#c1e5e4;}.cls-12{fill:url(#linear-gradient-7);}.cls-13{fill:url(#linear-gradient-8);}</style><linearGradient id="linear-gradient" x1="118.53" y1="178.49" x2="195.95" y2="255.91" gradientTransform="matrix(1, 0, 0, -1, 0, 390.03)" gradientUnits="userSpaceOnUse"><stop offset="0.01" stop-color="#cacad4"/><stop offset="1" stop-color="#dbdce3"/></linearGradient><linearGradient id="linear-gradient-2" x1="118.53" y1="178.49" x2="195.95" y2="255.91" gradientTransform="matrix(1, 0, 0, -1, 0, 390.03)" gradientUnits="userSpaceOnUse"><stop offset="0.01" stop-color="#62c6be"/><stop offset="1" stop-color="#82cfc9"/></linearGradient><linearGradient id="linear-gradient-3" x1="109.24" y1="209.72" x2="122.59" y2="209.72" gradientTransform="matrix(1, 0, 0, -1, 0, 390.03)" gradientUnits="userSpaceOnUse"><stop offset="0.01" stop-color="#dbdce3"/><stop offset="1" stop-color="#ededf0"/></linearGradient><linearGradient id="linear-gradient-4" x1="105.91" y1="209.72" x2="125.92" y2="209.72" gradientTransform="matrix(1, 0, 0, -1, 0, 390.03)" gradientUnits="userSpaceOnUse"><stop offset="0.01" stop-color="#616183"/><stop offset="1" stop-color="#84839e"/></linearGradient><linearGradient id="linear-gradient-5" x1="195.98" y1="209.72" x2="209.32" y2="209.72" xlink:href="#linear-gradient-3"/><linearGradient id="linear-gradient-6" x1="192.64" y1="209.72" x2="212.66" y2="209.72" xlink:href="#linear-gradient-4"/><linearGradient id="linear-gradient-7" x1="164.21" y1="226.45" x2="186.47" y2="248.72" xlink:href="#linear-gradient-4"/><linearGradient id="linear-gradient-8" x1="107.53" y1="214.64" x2="147.56" y2="254.67" xlink:href="#linear-gradient-4"/></defs><g id="Layer_2" data-name="Layer 2"><g id="Layer_1-2" data-name="Layer 1"><rect class="cls-1" x="1.5" y="1.5" width="280" height="340" rx="10.81"/><circle class="cls-2" cx="128.71" cy="164.54" r="71.71"/><rect class="cls-3" x="86.82" y="272.65" width="85.9" height="32.12" rx="16.06"/><text class="cls-4" transform="translate(112.58 293.51)">Car</text><g id="_21-limosine" data-name=" 21-limosine"><g id="gradient"><path class="cls-5" d="M214.88,157.39H192.93L179,142.05a11.79,11.79,0,0,0-8.72-4H121.21a12.27,12.27,0,0,0-11,7.48l-5.27,11.82H98.67a9.89,9.89,0,0,0-9.44,8l-2.17,9.4c-1.17,4.45,2.14,9.28,6.44,9.15h21l3.47,2.56a3.22,3.22,0,0,0,2.36,1.06h80.06a3.19,3.19,0,0,0,2.36-1.06l3.47-2.56h16.41a3.48,3.48,0,0,0,3.34-3.62V169.45c0-6.66-5-12.06-11.12-12.06Z"/><path class="cls-6" d="M114.53,183.93H222.66a3.48,3.48,0,0,0,3.34-3.62V169.45c0-6.66-5-12.06-11.12-12.06H192.93L179,142.05a11.79,11.79,0,0,0-8.72-4H121.21a12.27,12.27,0,0,0-11,7.48l-5.27,11.82H98.67a9.89,9.89,0,0,0-9.44,8l-2.17,9.4c-1.17,4.45,2.14,9.28,6.44,9.15Z"/><ellipse class="cls-7" cx="115.91" cy="180.31" rx="6.67" ry="7.24"/><path class="cls-8" d="M115.91,191.17c-5.52,0-10-4.86-10-10.86s4.48-10.86,10-10.86,10,4.86,10,10.86S121.44,191.16,115.91,191.17Zm0-14.48a3.63,3.63,0,1,0,3.34,3.62A3.48,3.48,0,0,0,115.91,176.69Z"/><ellipse class="cls-9" cx="202.65" cy="180.31" rx="6.67" ry="7.24"/><path class="cls-10" d="M202.65,191.17c-5.53,0-10-4.86-10-10.86s4.48-10.86,10-10.86,10,4.86,10,10.86S208.17,191.16,202.65,191.17Zm0-14.48a3.63,3.63,0,1,0,3.33,3.62A3.49,3.49,0,0,0,202.65,176.69Z"/><path class="cls-11" d="M169.29,170.66h-4.45a3.63,3.63,0,0,1,0-7.24h4.45a3.63,3.63,0,0,1,0,7.24Z"/><path class="cls-12" d="M164.84,157.39h28.09L179,142.05l-.33-.34H164.84a3.48,3.48,0,0,0-3.33,3.62v8.44A3.48,3.48,0,0,0,164.84,157.39Z"/><path class="cls-13" d="M110.2,145.57l-5.27,11.82h47.68a3.49,3.49,0,0,0,3.34-3.62v-8.44a3.49,3.49,0,0,0-3.34-3.62H112.83A13.27,13.27,0,0,0,110.2,145.57Z"/></g></g></g></g></svg>