<svg id="Capa_1" enable-background="new 0 0 512 512" height="512" viewBox="0 0 512 512" width="512" xmlns="http://www.w3.org/2000/svg"><g><path d="m15 213c0 109.352 88.648 198 198 198v-396c-109.352 0-198 88.648-198 198z" fill="#f6f6f6"/><path d="m213 15v396c109.352 0 198-88.648 198-198s-88.648-198-198-198z" fill="#e2e0f4"/><path d="m15 198h56v30h-56z" fill="#00607f"/><path d="m295.581 100.419h30v30h-30z" fill="#8dbbfd" transform="matrix(.707 -.707 .707 .707 9.352 253.416)"/><path d="m100.419 100.419h30v30h-30z" fill="#a0dff5" transform="matrix(.707 -.707 .707 .707 -47.808 115.419)"/><path d="m100.419 295.581h30v30h-30z" fill="#a0dff5" transform="matrix(.707 -.707 .707 .707 -185.808 172.581)"/><path d="m198 15h15v56h-15z" fill="#00607f"/><path d="m213 15h15v56h-15z" fill="#00465f"/><path d="m198 198h-39v30h54l6-48-6-57h-15z" fill="#007a9e"/><path d="m213 123h15v105h-15z" fill="#00607f"/><path d="m30 213c0-100.907 82.093-183 183-183l17-15-17-15c-117.449 0-213 95.551-213 213s95.551 213 213 213l8-14-8-16c-100.907 0-183-82.093-183-183z" fill="#007a9e"/><path d="m213 0v30c100.906 0 183 82.093 183 183s-82.094 183-183 183v30c117.448 0 213-95.551 213-213s-95.552-213-213-213z" fill="#00607f"/><path d="m213 362.5c0 82.434 67.065 149.5 149.5 149.5l28.5-150-28.5-149c-82.435 0-149.5 67.066-149.5 149.5z" fill="#20ca78"/><path d="m362.5 213v299c82.435 0 149.5-67.066 149.5-149.5s-67.065-149.5-149.5-149.5z" fill="#19a78e"/><path d="m335.858 395.359c0-14.69 11.951-26.642 26.642-26.642l7.5-13.717-7.5-16.283c-8.469 0-15.358-6.89-15.358-15.358s6.889-15.359 15.358-15.359l10.5-11-10.5-19c-25.011 0-45.358 20.348-45.358 45.359 0 10.568 3.643 20.294 9.725 28.014-12.805 10.393-21.008 26.247-21.008 43.986 0 31.232 25.409 56.641 56.642 56.641l6.5-15-6.5-15c-14.691 0-26.643-11.951-26.643-26.641z" fill="#ffe370"/><path d="m398.134 351.373c6.082-7.72 9.725-17.446 9.725-28.014 0-25.011-20.348-45.359-45.358-45.359v30c8.469 0 15.358 6.89 15.358 15.359s-6.89 15.358-15.358 15.358v30c14.69 0 26.642 11.951 26.642 26.642 0 14.69-11.951 26.641-26.642 26.641v30c31.232 0 56.642-25.409 56.642-56.641-.001-17.739-8.204-33.593-21.009-43.986z" fill="#ffd300"/></g></svg>