<svg xmlns="http://www.w3.org/2000/svg" xmlns:xlink="http://www.w3.org/1999/xlink" viewBox="0 0 283 343"><defs><style>.cls-1,.cls-11{fill:#fff;}.cls-1{stroke:#dd878b;stroke-miterlimit:10;stroke-width:3px;}.cls-2{fill:#fef0f1;}.cls-3{fill:#dd878b;}.cls-4{fill:url(#linear-gradient);}.cls-5{fill:url(#linear-gradient-2);}.cls-6{fill:url(#linear-gradient-3);}.cls-7{fill:url(#linear-gradient-4);}.cls-8{fill:url(#linear-gradient-5);}.cls-9{fill:url(#linear-gradient-6);}.cls-10{fill:#d4676a;}.cls-11{font-size:20.16px;font-family:Kollektif;}</style><linearGradient id="linear-gradient" x1="125.17" y1="189.1" x2="193.75" y2="257.68" gradientTransform="matrix(1, 0, 0, -1, 0, 392.92)" gradientUnits="userSpaceOnUse"><stop offset="0" stop-color="#d4676a"/><stop offset="1" stop-color="#dd888b"/></linearGradient><linearGradient id="linear-gradient-2" x1="196.55" y1="213.21" x2="208.18" y2="224.84" gradientTransform="matrix(1, 0, 0, -1, 0, 392.92)" gradientUnits="userSpaceOnUse"><stop offset="0.01" stop-color="#dbdce3"/><stop offset="1" stop-color="#ededf0"/></linearGradient><linearGradient id="linear-gradient-3" x1="194.37" y1="211.03" x2="210.36" y2="227.02" gradientTransform="matrix(1, 0, 0, -1, 0, 392.92)" gradientUnits="userSpaceOnUse"><stop offset="0.01" stop-color="#616183"/><stop offset="1" stop-color="#84839e"/></linearGradient><linearGradient id="linear-gradient-4" x1="118.45" y1="213.21" x2="130.08" y2="224.84" xlink:href="#linear-gradient-2"/><linearGradient id="linear-gradient-5" x1="116.27" y1="211.03" x2="132.26" y2="227.02" xlink:href="#linear-gradient-3"/><linearGradient id="linear-gradient-6" x1="127.52" y1="224.85" x2="162.11" y2="259.44" xlink:href="#linear-gradient-3"/></defs><g id="Layer_2" data-name="Layer 2"><g id="Layer_1-2" data-name="Layer 1"><rect class="cls-1" x="1.5" y="1.5" width="280" height="340" rx="10.81"/><circle class="cls-2" cx="129.22" cy="165.44" r="72.22"/><rect class="cls-3" x="72.56" y="271.84" width="123.47" height="32.35" rx="16.18"/><g id="_06-sport_car" data-name=" 06-sport car"><g id="gradient"><path class="cls-4" d="M225.59,168.25c-.33-.57-8.17-13.88-23.23-13.88-14.54,0-22.15-3.26-23.13-3.71-1.69-1.11-13.51-8.62-22.08-8.62H132.48c-8.32,0-19.71,7.09-21.9,8.5l-12,4a3.08,3.08,0,0,0-2.11,2.92V173.9a3.08,3.08,0,0,0,2.48,3L119.55,181a3.05,3.05,0,0,0,.6.06H222.92A3.08,3.08,0,0,0,226,178v-8.23A3,3,0,0,0,225.59,168.25Z"/><circle class="cls-5" cx="202.36" cy="173.9" r="8.22"/><path class="cls-6" d="M202.36,185.2a11.31,11.31,0,1,1,11.31-11.3A11.3,11.3,0,0,1,202.36,185.2Zm0-16.44a5.14,5.14,0,1,0,5.14,5.14A5.14,5.14,0,0,0,202.36,168.76Z"/><circle class="cls-7" cx="124.26" cy="173.9" r="8.22"/><path class="cls-8" d="M124.26,185.2a11.31,11.31,0,1,1,11.31-11.3A11.3,11.3,0,0,1,124.26,185.2Zm0-16.44a5.14,5.14,0,1,0,5.14,5.14A5.14,5.14,0,0,0,124.26,168.76Z"/><path class="cls-9" d="M132.48,142c-9,0-21.63,8.32-22.25,8.73a3,3,0,0,0,1.7.52h12.33c7.61,0,19.43,3.9,19.58,4a3.3,3.3,0,0,0,1,.16h24.66a3,3,0,0,0,1.38-.33l8.22-4.11a2.07,2.07,0,0,0,.32-.19c-.62-.41-13.23-8.73-22.25-8.73Z"/><circle class="cls-10" cx="181.81" cy="169.78" r="3.08"/><circle class="cls-10" cx="169.48" cy="169.78" r="3.08"/><path class="cls-10" d="M157.15,166.7H144.82a3.09,3.09,0,1,0,0,6.17h12.33a3.09,3.09,0,0,0,0-6.17Z"/></g></g><text class="cls-11" transform="translate(89.64 294.4)">Luxury car</text></g></g></svg>