<svg xmlns="http://www.w3.org/2000/svg" viewBox="0 0 100 100"><defs><style>.cls-1{fill:#2e3c5d;}.cls-2{fill:#fff;}</style></defs><g id="Layer_2" data-name="Layer 2"><g id="Layer_1-2" data-name="Layer 1"><rect class="cls-1" width="100" height="100" rx="50"/><path class="cls-2" d="M71.59,60.68l-6.38-6.37a4.23,4.23,0,0,0-7,1.59,4.33,4.33,0,0,1-5,2.73C48.6,57.49,42.46,51.58,41.32,46.8a4.13,4.13,0,0,1,2.73-5,4.23,4.23,0,0,0,1.59-7l-6.37-6.37a4.52,4.52,0,0,0-6.14,0L28.8,32.69C24.48,37.24,29.26,49.3,40,60s22.75,15.7,27.3,11.15l4.33-4.33A4.55,4.55,0,0,0,71.59,60.68Z"/></g></g></svg>