<svg xmlns="http://www.w3.org/2000/svg" xmlns:xlink="http://www.w3.org/1999/xlink" viewBox="0 0 283 343"><defs><style>.cls-1,.cls-16{fill:#fff;}.cls-1{stroke:#f9c83c;stroke-miterlimit:10;stroke-width:3px;}.cls-2{fill:url(#linear-gradient);}.cls-3{fill:#fefce7;}.cls-4{fill:url(#linear-gradient-2);}.cls-5{fill:url(#linear-gradient-3);}.cls-6{fill:url(#linear-gradient-4);}.cls-7{fill:url(#linear-gradient-5);}.cls-8{fill:#616183;}.cls-9{fill:url(#linear-gradient-6);}.cls-10{fill:url(#linear-gradient-7);}.cls-11{fill:url(#linear-gradient-8);}.cls-12{fill:url(#linear-gradient-9);}.cls-13{fill:url(#linear-gradient-10);}.cls-14{fill:url(#linear-gradient-11);}.cls-15{fill:#84839e;}.cls-16{font-size:20.48px;font-family:Kollektif;}</style><linearGradient id="linear-gradient" x1="106.97" y1="269.3" x2="164.18" y2="326.51" gradientUnits="userSpaceOnUse"><stop offset="0.01" stop-color="#f8c73f"/><stop offset="1" stop-color="#fada7e"/></linearGradient><linearGradient id="linear-gradient-2" x1="126.02" y1="-651.76" x2="147.36" y2="-651.76" gradientTransform="matrix(1, 0, 0, -1, 0, -463.2)" gradientUnits="userSpaceOnUse"><stop offset="0.01" stop-color="#dbdce3"/><stop offset="1" stop-color="#ededf0"/></linearGradient><linearGradient id="linear-gradient-3" x1="127.77" y1="-660.66" x2="145.59" y2="-642.84" gradientTransform="matrix(1, 0, 0, -1, 0, -463.2)" gradientUnits="userSpaceOnUse"><stop offset="0.01" stop-color="#616183"/><stop offset="1" stop-color="#84839e"/></linearGradient><linearGradient id="linear-gradient-4" x1="200.72" y1="-651.76" x2="222.06" y2="-651.76" xlink:href="#linear-gradient-2"/><linearGradient id="linear-gradient-5" x1="202.47" y1="-660.66" x2="220.29" y2="-642.84" xlink:href="#linear-gradient-3"/><linearGradient id="linear-gradient-6" x1="204.63" y1="-606.81" x2="213.98" y2="-597.46" gradientTransform="matrix(1, 0, 0, -1, 0, -463.2)" gradientUnits="userSpaceOnUse"><stop offset="0.01" stop-color="#cacad4"/><stop offset="1" stop-color="#dbdce3"/></linearGradient><linearGradient id="linear-gradient-7" x1="198.25" y1="-607.95" x2="209.89" y2="-596.32" xlink:href="#linear-gradient-3"/><linearGradient id="linear-gradient-8" x1="196.72" y1="-660.89" x2="216.93" y2="-640.68" gradientTransform="matrix(1, 0, 0, -1, 0, -463.2)" gradientUnits="userSpaceOnUse"><stop offset="0.01" stop-color="#fad46a"/><stop offset="1" stop-color="#fbe6aa"/></linearGradient><linearGradient id="linear-gradient-9" x1="140.65" y1="-628.84" x2="156.88" y2="-612.6" xlink:href="#linear-gradient-3"/><linearGradient id="linear-gradient-10" x1="161.54" y1="-633.07" x2="187.27" y2="-607.35" gradientTransform="matrix(1, 0, 0, -1, 0, -463.2)" xlink:href="#linear-gradient"/><linearGradient id="linear-gradient-11" x1="144.43" y1="-640.17" x2="170.03" y2="-614.57" gradientTransform="matrix(1, 0, 0, -1, 0, -463.2)" gradientUnits="userSpaceOnUse"><stop offset="0.01" stop-color="#a6a6b9"/><stop offset="1" stop-color="#cacad4"/></linearGradient></defs><g id="Layer_2" data-name="Layer 2"><g id="Layer_1-2" data-name="Layer 1"><text/><rect class="cls-1" x="1.5" y="1.5" width="280" height="340" rx="10.81"/><rect class="cls-2" x="85.27" y="281.23" width="100.6" height="33.35" rx="16.67"/><circle class="cls-3" cx="138.63" cy="169.61" r="77.34"/><g id="_18-scooter" data-name=" 18-scooter"><g id="gradient"><ellipse class="cls-4" cx="136.69" cy="188.55" rx="10.67" ry="9.45"/><path class="cls-5" d="M136.69,200.37c-7.37,0-13.34-5.29-13.34-11.82s6-11.81,13.34-11.81S150,182,150,188.55,144.05,200.36,136.69,200.37Zm0-18.91c-4.42,0-8,3.18-8,7.09s3.59,7.09,8,7.09,8-3.17,8-7.09h0C144.69,184.64,141.1,181.47,136.69,181.46Z"/><ellipse class="cls-6" cx="211.39" cy="188.55" rx="10.67" ry="9.45"/><path class="cls-7" d="M211.39,200.37c-7.37,0-13.34-5.29-13.34-11.82s6-11.81,13.34-11.81,13.34,5.29,13.34,11.81S218.75,200.36,211.39,200.37Zm0-18.91c-4.42,0-8,3.18-8,7.09s3.59,7.09,8,7.09,8-3.17,8-7.09h0C219.39,184.64,215.8,181.47,211.39,181.46Z"/><path class="cls-8" d="M122.46,159.41a2.53,2.53,0,0,1-2.67-2.36v-8.47L117,146.12a2.17,2.17,0,0,1,0-3.34,2.9,2.9,0,0,1,3.74,0l3.55,3.15a2.23,2.23,0,0,1,.79,1.67v9.45a2.53,2.53,0,0,1-2.67,2.36Z"/><path class="cls-9" d="M207.83,131.06s7.11,0,7.11,7.87-7.11,7.88-7.11,7.88l-.89-7.88Z"/><path class="cls-10" d="M207.83,146.81l-10.67-3.15v-9.45l10.67-3.15Z"/><path class="cls-11" d="M211.39,170.44c-9.33,0-16.89,6.7-16.9,15a2.53,2.53,0,0,0,2.67,2.37h28.46a2.53,2.53,0,0,0,2.66-2.37C228.27,177.14,220.71,170.45,211.39,170.44Z"/><path class="cls-12" d="M169.59,146.81H134.91c-4.42,0-8,3.17-8,7.09v4.72a2.54,2.54,0,0,0,2.67,2.37h42.69a2.54,2.54,0,0,0,2.67-2.37h0v-7.09C174.92,148.93,172.54,146.81,169.59,146.81Z"/><path class="cls-13" d="M216.26,165.17l-16.43-21.45V135a2.53,2.53,0,0,0-2.67-2.36h-5.34a2.81,2.81,0,0,0-2.22,1.05l-5.45,7.25a6.43,6.43,0,0,0-.6,6.92l9.73,18.56-7.69,16.73a2.7,2.7,0,0,1-2.48,1.48h-5.52a2.53,2.53,0,0,1-2.66-2.37V158.62a2.53,2.53,0,0,0-2.67-2.36H118.9a2.53,2.53,0,0,0-2.67,2.36v10.27a11.1,11.1,0,0,0,3.91,8.35l7.55,6.68a2.8,2.8,0,0,0,1.88.7h23.8l9.89,8.75a2.82,2.82,0,0,0,1.88.7H193.6a2.79,2.79,0,0,0,2.17-1l20.45-25.2a2.15,2.15,0,0,0,0-2.71Z"/><path class="cls-14" d="M174.93,156.26h-45.2a2.87,2.87,0,0,0-2.3,1.06,2.15,2.15,0,0,0,.27,2.91l24.65,23.63a2.84,2.84,0,0,0,2,.76h17.95a2.54,2.54,0,0,0,2.67-2.37Z"/><path class="cls-8" d="M191.82,137.36a2.84,2.84,0,0,1-1.88-.69l-7.12-6.31a2.18,2.18,0,0,1,0-3.34,2.93,2.93,0,0,1,3.74,0l7.12,6.3a2.19,2.19,0,0,1,0,3.35,2.87,2.87,0,0,1-1.89.69Z"/><path class="cls-15" d="M158,166.5a2.53,2.53,0,0,0-2.67-2.36H132.24a3.11,3.11,0,0,0-.43,0l4.89,4.69h18.66A2.53,2.53,0,0,0,158,166.5Z"/><path class="cls-15" d="M157.81,174.57a2.53,2.53,0,0,0-2.67-2.36H140.2l4.93,4.73h10A2.54,2.54,0,0,0,157.81,174.57Z"/></g></g><text class="cls-16" transform="translate(106.65 302.7)">Scoter</text></g></g></svg>