<svg xmlns="http://www.w3.org/2000/svg" xmlns:xlink="http://www.w3.org/1999/xlink" viewBox="0 0 283 343"><defs><style>.cls-1,.cls-14{fill:#fff;}.cls-1{stroke:#f9c83c;stroke-miterlimit:10;stroke-width:3px;}.cls-2{fill:#fefce7;}.cls-3{fill:url(#linear-gradient);}.cls-4{fill:url(#linear-gradient-2);}.cls-5{fill:url(#linear-gradient-3);}.cls-6{fill:url(#linear-gradient-4);}.cls-7{fill:url(#linear-gradient-5);}.cls-8{fill:url(#linear-gradient-6);}.cls-9{fill:#feecbf;}.cls-10{fill:url(#linear-gradient-7);}.cls-11{fill:url(#linear-gradient-8);}.cls-12{fill:url(#linear-gradient-9);}.cls-13{fill:url(#linear-gradient-10);}.cls-14{font-size:20.78px;font-family:Kollektif;}.cls-15{letter-spacing:0.14em;}</style><linearGradient id="linear-gradient" x1="143.6" y1="252.09" x2="164.23" y2="272.72" gradientTransform="matrix(1, 0, 0, -1, 0, 396.01)" gradientUnits="userSpaceOnUse"><stop offset="0.01" stop-color="#fbe6aa"/><stop offset="1" stop-color="#fdf4d5"/></linearGradient><linearGradient id="linear-gradient-2" x1="123.66" y1="188.19" x2="198.44" y2="262.98" gradientTransform="matrix(1, 0, 0, -1, 0, 396.01)" gradientUnits="userSpaceOnUse"><stop offset="0.01" stop-color="#f8c73f"/><stop offset="1" stop-color="#fada7e"/></linearGradient><linearGradient id="linear-gradient-3" x1="193.6" y1="206.26" x2="208.02" y2="220.68" gradientTransform="matrix(1, 0, 0, -1, 0, 396.01)" gradientUnits="userSpaceOnUse"><stop offset="0.01" stop-color="#dbdce3"/><stop offset="1" stop-color="#ededf0"/></linearGradient><linearGradient id="linear-gradient-4" x1="191.43" y1="204.1" x2="210.18" y2="222.85" gradientTransform="matrix(1, 0, 0, -1, 0, 396.01)" gradientUnits="userSpaceOnUse"><stop offset="0.01" stop-color="#616183"/><stop offset="1" stop-color="#84839e"/></linearGradient><linearGradient id="linear-gradient-5" x1="120.2" y1="206.26" x2="134.62" y2="220.68" xlink:href="#linear-gradient-3"/><linearGradient id="linear-gradient-6" x1="118.04" y1="204.1" x2="136.78" y2="222.85" xlink:href="#linear-gradient-4"/><linearGradient id="linear-gradient-7" x1="168.15" y1="233.61" x2="188.49" y2="253.94" xlink:href="#linear-gradient-4"/><linearGradient id="linear-gradient-8" x1="114.56" y1="239.23" x2="129.2" y2="253.87" xlink:href="#linear-gradient-4"/><linearGradient id="linear-gradient-9" x1="135.29" y1="238.05" x2="155.15" y2="257.91" xlink:href="#linear-gradient-4"/><linearGradient id="linear-gradient-10" x1="106.52" y1="263.06" x2="158.02" y2="314.56" gradientTransform="matrix(1, 0, 0, 1, 0, 0)" xlink:href="#linear-gradient-2"/></defs><g id="Layer_2" data-name="Layer 2"><g id="Layer_1-2" data-name="Layer 1"><rect class="cls-1" x="1.5" y="1.5" width="280" height="340" rx="10.81"/><circle class="cls-2" cx="131.16" cy="164.27" r="74.45"/><g id="_29-taxi" data-name=" 29-taxi"><g id="gradient"><path class="cls-3" d="M169.05,136.71,165,124.48a3,3,0,0,0-2.9-2.09H145.76a3,3,0,0,0-2.9,2.09l-4.08,12.23a3.07,3.07,0,0,0,1.93,3.87,3.23,3.23,0,0,0,1,.16h24.47a3.06,3.06,0,0,0,3.06-3.06A3.18,3.18,0,0,0,169.05,136.71Z"/><path class="cls-4" d="M223.77,159.13,200.24,155l-18.82-18.58a6.07,6.07,0,0,0-4.29-1.77H129.72a9.14,9.14,0,0,0-8.48,5.68L115.17,155H104a6.12,6.12,0,0,0-6.11,6.12v18.34a6.12,6.12,0,0,0,6.11,6.12H217.12a9.18,9.18,0,0,0,9.17-9.17V162.14A3.06,3.06,0,0,0,223.77,159.13Z"/><circle class="cls-5" cx="200.81" cy="182.53" r="10.19"/><path class="cls-6" d="M200.81,195.79a13.26,13.26,0,1,1,13.25-13.26A13.26,13.26,0,0,1,200.81,195.79Zm0-20.39a7.14,7.14,0,1,0,7.13,7.13A7.14,7.14,0,0,0,200.81,175.4Z"/><circle class="cls-7" cx="127.41" cy="182.53" r="10.19"/><path class="cls-8" d="M127.41,195.79a13.26,13.26,0,1,1,13.25-13.26A13.26,13.26,0,0,1,127.41,195.79Zm0-20.39a7.14,7.14,0,1,0,7.14,7.13A7.14,7.14,0,0,0,127.41,175.4Z"/><path class="cls-9" d="M170.23,166.22h-4.08a3.06,3.06,0,1,1,0-6.11h4.08a3.06,3.06,0,0,1,0,6.11Z"/><path class="cls-10" d="M185.83,140.74H166.15a3.06,3.06,0,0,0-3.06,3.06V152a3.06,3.06,0,0,0,3.06,3.06h34.33l-.24,0Z"/><path class="cls-11" d="M124.61,140.74h-3.55L115.17,155h9.44a3.05,3.05,0,0,0,3-3.06V143.8A3.05,3.05,0,0,0,124.61,140.74Z"/><rect class="cls-12" x="133.78" y="140.74" width="23.19" height="14.27" rx="3.06"/></g></g><rect class="cls-13" x="87.67" y="272.13" width="89.19" height="33.35" rx="16.67"/><text class="cls-14" transform="translate(105.05 294.9)"><tspan class="cls-15">	</tspan><tspan x="8.31" y="0">Taxi</tspan></text></g></g></svg>